<svg version="1.1" xmlns="http://www.w3.org/2000/svg" viewBox="210 210 835 835">
  <path fill="#88c0d0" opacity="1.0" stroke="none" d="M391.558502,864.562012 C414.770752,831.424988 437.898010,798.228088 461.224091,765.171326 C477.741455,741.763550 494.530212,718.547302 511.188538,695.238953 C512.325684,693.647888 513.384827,692.001099 514.827759,689.865967 C416.111115,669.324341 317.944061,648.897095 219.777023,628.469910 C219.745956,628.100342 219.714890,627.730774 219.683807,627.361206 C317.965973,607.048096 416.248169,586.734985 515.386597,566.244934 C489.683167,530.326538 464.441345,495.053223 438.641846,459.000580 C437.294037,462.427734 436.131836,465.046661 435.221252,467.750305 C426.203400,494.526520 419.706848,521.833374 418.307770,550.164917 C418.161621,553.124207 417.398041,554.463074 414.247314,555.063660 C403.349243,557.141052 392.525635,559.609436 380.672791,562.142944 C381.955139,549.287842 382.795654,537.188110 384.428314,525.196289 C389.018463,491.482178 398.703979,459.225067 412.769470,428.242523 C413.487701,426.660400 412.872864,423.774323 411.822296,422.200531 C404.613678,411.401794 397.123077,400.791260 389.753174,389.651367 C389.905334,389.067993 390.027649,388.953430 390.149933,388.838837 C400.609253,396.183838 411.068604,403.528839 421.732483,411.017487 C448.953796,360.083954 488.595703,321.332672 537.556702,291.163635 C536.430664,291.357513 535.276550,291.451691 534.182617,291.759583 C473.404877,308.867706 421.375061,340.392334 377.824371,386.130768 C332.064423,434.189392 302.581238,490.723297 288.788391,555.519043 C287.160980,563.164368 286.307709,570.972107 284.888123,578.666321 C284.643646,579.991333 283.544373,581.987549 282.517700,582.214172 C268.590088,585.289429 254.605560,588.106750 239.666290,591.187622 C249.186905,504.342407 281.266876,428.187378 339.867310,364.210388 C407.528534,290.341309 491.608215,248.142334 592.349182,237.331238 C590.731506,245.370377 589.307007,252.614029 587.812500,259.843231 C584.407288,276.314758 580.834412,292.753448 577.645447,309.266479 C576.937866,312.930328 574.568787,313.922150 571.855469,315.234436 C518.939209,340.827637 479.413025,380.264313 451.142212,432.059692 C489.395081,459.635254 527.531799,487.127106 566.385315,515.135681 C586.988159,416.540558 607.394653,318.885071 627.801086,221.229568 C628.032654,221.259720 628.264160,221.289856 628.495667,221.320007 C648.896179,318.988525 669.296631,416.657074 689.808777,514.860291 C749.231628,472.484833 808.059265,430.533875 867.341919,388.626953 C867.900818,388.812653 868.004700,388.954315 868.108582,389.096008 C849.003479,415.756317 829.905701,442.421814 810.791443,469.075500 C788.267273,500.484131 765.727478,531.881470 743.204163,563.290710 C742.647949,564.066345 742.205200,564.923340 741.467285,566.142639 C840.231323,586.608215 938.625000,606.997070 1037.018677,627.385925 C1037.040283,627.731873 1037.062012,628.077881 1037.083618,628.423828 C938.778198,648.880981 840.472778,669.338074 741.484985,689.937195 C780.034912,744.140015 818.287720,797.925110 856.739441,851.989746 C857.870544,851.388916 859.027100,850.855286 860.102966,850.191101 C891.392395,830.875427 918.577148,806.818420 939.357849,776.533569 C947.590210,764.536194 953.158813,750.218750 957.569092,736.211121 C963.550171,717.214111 967.202209,697.487122 972.020630,678.114868 C972.446899,676.400879 973.864685,673.918213 975.231079,673.610779 C988.701538,670.579590 1002.258545,667.933167 1015.850098,665.165710 C1006.960327,831.437073 859.668823,998.586304 665.964600,1014.599609 C666.161560,1012.942749 666.229980,1011.378174 666.546021,1009.865417 C669.031982,997.967957 671.659729,986.098999 674.013733,974.175842 C674.563416,971.391418 675.734192,970.367493 678.503540,969.994568 C730.376587,963.009094 778.243225,945.312073 821.729614,916.054871 C827.915039,911.893494 833.889709,907.418823 839.719055,902.229187 C789.737976,922.594238 738.281250,931.719971 684.053101,924.868225 C686.495605,912.886902 688.875671,901.211975 691.358215,889.034485 C719.122437,891.573181 746.474426,890.263916 773.529236,884.649719 C800.425781,879.068298 825.987671,869.833374 850.707886,855.726074 C796.893921,817.308716 743.624573,779.280273 689.712219,740.792725 C669.298584,840.439758 649.062561,939.219666 628.826538,1037.999634 C628.337769,1038.062988 627.848999,1038.126343 627.360229,1038.189697 C607.031616,939.372681 586.703064,840.555603 566.225220,741.013123 C508.181274,782.548218 450.532928,823.800232 392.387512,864.971436 C391.890411,864.890564 391.558502,864.562012 391.558502,864.562012 M671.054382,685.592590 C683.651733,669.250977 700.426758,659.979492 720.473022,655.958557 C760.160095,647.997925 799.813110,639.867310 839.477173,631.792114 C844.905396,630.686890 850.316223,629.496033 856.934082,628.090088 C855.240906,627.423645 854.855042,627.202271 854.441284,627.118713 C809.391235,618.015625 764.324524,608.994141 719.292053,599.805237 C687.129700,593.242493 666.357849,573.794189 658.085388,542.310303 C652.000183,519.150879 647.862915,495.475311 642.997131,472.000824 C638.094788,448.350525 633.364502,424.664551 628.366150,400.044769 C627.805237,401.719086 627.470642,402.460938 627.308472,403.238739 C618.164917,447.087311 609.088989,490.950134 599.887695,534.786621 C592.838074,568.371887 574.333862,591.798584 539.707825,599.260986 C497.549194,608.346741 455.186249,616.484192 412.913910,625.042847 C409.059052,625.823303 405.220459,626.683960 400.609985,627.671082 C401.828217,628.367615 402.088959,628.612732 402.387390,628.673767 C446.942963,637.790649 491.531921,646.747131 536.049377,656.046265 C569.849854,663.106689 591.605042,683.306885 598.985901,717.262268 C608.430969,760.713928 616.988403,804.358521 625.937500,847.918152 C626.558655,850.941589 627.255554,853.949463 628.215210,858.322327 C637.018921,814.944580 645.550049,773.068237 654.003601,731.176331 C657.208618,715.293640 660.428406,699.446167 671.054382,685.592590 z"/>
  <path fill="#88c0d0" opacity="1.0" stroke="none" d="M386.726410,932.261108 C301.744720,862.964966 252.860352,774.276062 239.571213,664.782349 C243.640167,665.623230 246.658188,666.259705 249.681610,666.869385 C260.132385,668.976929 270.570435,671.152649 281.047028,673.123108 C283.713837,673.624695 284.803009,674.577637 285.264160,677.483826 C299.943695,769.993530 344.846649,844.861694 418.412781,902.306030 C465.297638,938.916199 518.736572,961.112610 577.599609,970.152466 C579.135315,970.388245 581.405090,971.909729 581.702209,973.205444 C584.604919,985.865601 587.168518,998.603699 589.797119,1011.326111 C589.988586,1012.252930 589.933960,1013.230591 590.033508,1014.819641 C514.202637,1006.650635 446.673218,979.319702 386.726410,932.261108 z"/>
  <path fill="#88c0d0" opacity="1.0" stroke="none" d="M717.095459,286.762451 C702.518005,285.946136 688.403137,285.164001 673.635620,284.345703 C670.496094,269.397308 667.259644,253.987091 663.812012,237.571594 C699.948914,240.829361 734.403198,248.649704 767.807129,261.272522 C801.262024,273.914642 832.392090,290.666199 860.278870,313.266907 C813.130981,301.801331 765.908508,291.274475 717.095459,286.762451 z"/>
  <path fill="#88c0d0" opacity="1.0" stroke="none" d="M508.385742,845.601562 C503.292084,841.116760 498.462646,836.867615 493.256165,832.286682 C503.293274,824.734863 512.820435,817.566772 522.083801,810.597107 C532.372131,818.453186 542.291443,825.997009 552.154602,833.613647 C552.996399,834.263733 553.846802,835.322083 554.047241,836.320496 C557.123535,851.643250 560.092407,866.987488 563.338562,883.619385 C542.903259,872.819641 525.360107,859.943787 508.385742,845.601562 z"/>
  <path fill="#88c0d0" opacity="1.0" stroke="none" d="M443.739258,707.133484 C445.894348,709.609070 447.759094,711.954102 449.403809,714.444519 C453.212250,720.211304 452.803345,725.074036 447.955048,730.693237 C441.574707,738.088135 436.480682,746.592834 429.788666,756.105713 C420.586670,736.813904 411.856506,718.511169 403.126312,700.208496 C403.546173,699.856079 403.966003,699.503662 404.385864,699.151184 C417.373566,701.790466 430.361298,704.429749 443.739258,707.133484 z"/>
  <path fill="#88c0d0" opacity="1.0" stroke="none" d="M389.592651,389.346680 C389.291229,389.122070 389.180267,388.733337 389.069275,388.344666 C389.338684,388.340118 389.608063,388.335571 390.013702,388.584961 C390.027649,388.953430 389.905334,389.067993 389.592651,389.346680 z"/>
  <path fill="#88c0d0" opacity="1.0" stroke="none" d="M867.646118,388.454865 C867.856812,388.036652 868.218323,387.834564 868.579834,387.632507 C868.601868,388.016388 868.623962,388.400299 868.377319,388.940094 C868.004700,388.954315 867.900818,388.812653 867.646118,388.454865 z"/>
  <path fill="#88c0d0" opacity="1.0" stroke="none" d="M392.055237,865.056030 C391.863586,865.412903 391.507172,865.604370 391.150757,865.795837 C391.133575,865.521484 391.116425,865.247192 391.328857,864.767456 C391.558502,864.562012 391.890411,864.890564 392.055237,865.056030 z"/>
</svg>